<?xml version="1.0" encoding="utf-8"?>
<!-- Generator: Adobe Illustrator 23.0.3, SVG Export Plug-In . SVG Version: 6.00 Build 0)  -->
<svg version="1.1" id="Layer_1" xmlns="http://www.w3.org/2000/svg" xmlns:xlink="http://www.w3.org/1999/xlink" x="0px" y="0px"
	 width="279.21px" height="245.85px" viewBox="0 0 279.21 245.85" style="enable-background:new 0 0 279.21 245.85;"
	 xml:space="preserve">
<style type="text/css">
	.st0{fill:none;}
</style>
<path class="st0" d="M89.54,77.72v8.51H33.59v-8.51H0v153.81h123.14V77.72H89.54z M89.54,158.51H33.59v-7.76h55.95V158.51z"/>
<polygon class="st0" points="90.28,26.25 32.86,26.25 32.86,17.75 0.01,17.75 0.01,0 123.14,0 123.14,17.75 90.28,17.75 "/>
<path class="st0" d="M249.12,45.8v-8.5H142.99v8.5h-8.51v191.54h32.86v8.51h57.43v-8.51h32.85V45.8H249.12z M156.45,179.94
	c-2.29,0-4.16-1.87-4.16-4.17c0-2.29,1.87-4.16,4.16-4.16c2.3,0,4.17,1.87,4.17,4.16C160.62,178.07,158.75,179.94,156.45,179.94z
	 M156.45,115.14c-2.29,0-4.16-1.87-4.16-4.17c0-2.29,1.87-4.16,4.16-4.16c2.3,0,4.17,1.87,4.17,4.16
	C160.62,113.27,158.75,115.14,156.45,115.14z M196.05,138.95c-15.42,0-27.97-12.55-27.97-27.98c0-15.42,12.55-27.97,27.97-27.97
	c15.43,0,27.98,12.55,27.98,27.97C224.03,126.4,211.48,138.95,196.05,138.95z M235.65,115.14c-2.29,0-4.16-1.87-4.16-4.17
	c0-2.29,1.87-4.16,4.16-4.16c2.3,0,4.17,1.87,4.17,4.16C239.82,113.27,237.95,115.14,235.65,115.14z"/>
<polygon class="st0" points="105.39,29.09 114.64,29.09 114.64,66.38 0,66.38 0,37.59 105.39,37.59 "/>
<polygon class="st0" points="134.48,0 134.48,9.24 269.98,9.24 269.98,37.31 279.22,37.31 279.22,0 "/>
</svg>
